# xmcd
#
# Track frame offsets: 
#        150
#        17834
#        33402
#        50253
#        69486
#        95383
#        115865
#        128638
#        144153
#        151602
#        191293
#
# Disc length: 2622 seconds
#
# Revision: 0
# Processed by: cddbd v1.4PL0 Copyright (c) Steve Scherf et al.
# Submitted via: ExactAudioCopy v0.90a11
#
DISCID=7f0a3c0b
DTITLE=Chris de Burgh - Crusader
DYEAR=1900
DGENRE=
TTITLE0=Carry on
TTITLE1=I had the love in my eyes
TTITLE2=Something else again
TTITLE3=The girl with April in her eyes
TTITLE4=Just in time
TTITLE5=The devil's eye
TTITLE6=It's such a long way home
TTITLE7=Old-fashioned people
TTITLE8=Quiet moments
TTITLE9=Crusader
TTITLE10=You and me
EXTD=
EXTT0=
EXTT1=
EXTT2=
EXTT3=
EXTT4=
EXTT5=
EXTT6=
EXTT7=
EXTT8=
EXTT9=
EXTT10=
PLAYORDER=
